<svg width="196" height="182" viewBox="0 0 196 182" fill="none" xmlns="http://www.w3.org/2000/svg">
<rect x="0.5" y="10.5" width="190" height="32" rx="14.5" fill="white" fill-opacity="0.63" stroke="black"/>
<rect x="96.5" y="18.5" width="82" height="15" rx="3.5" fill="#5C5C5C" stroke="black"/>
<rect x="70.5" y="18.5" width="15" height="15" rx="3.5" fill="#5C5C5C" stroke="black"/>
<rect x="44.5" y="18.5" width="15" height="15" rx="3.5" fill="#5C5C5C" stroke="black"/>
<rect x="18.5" y="18.5" width="15" height="15" rx="3.5" fill="#5C5C5C" stroke="black"/>
<circle cx="153" cy="26" r="4.5" fill="#B6B941" stroke="black"/>
<circle cx="139" cy="26" r="4.5" fill="#B6B941" stroke="black"/>
<circle cx="167" cy="26" r="4.5" fill="#B6B941" stroke="black"/>
<rect x="0.5" y="43.5" width="190" height="32" rx="14.5" fill="white" fill-opacity="0.63" stroke="black"/>
<rect x="96.5" y="51.5" width="82" height="15" rx="3.5" fill="#5C5C5C" stroke="black"/>
<rect x="70.5" y="51.5" width="15" height="15" rx="3.5" fill="#5C5C5C" stroke="black"/>
<rect x="44.5" y="51.5" width="15" height="15" rx="3.5" fill="#5C5C5C" stroke="black"/>
<rect x="18.5" y="51.5" width="15" height="15" rx="3.5" fill="#5C5C5C" stroke="black"/>
<circle cx="153" cy="59" r="4.5" fill="#B6B941" stroke="black"/>
<circle cx="139" cy="59" r="4.5" fill="#B6B941" stroke="black"/>
<circle cx="167" cy="59" r="4.5" fill="#B6B941" stroke="black"/>
<rect x="0.5" y="76.5" width="190" height="32" rx="14.5" fill="white" fill-opacity="0.63" stroke="black"/>
<rect x="96.5" y="84.5" width="82" height="15" rx="3.5" fill="#5C5C5C" stroke="black"/>
<rect x="70.5" y="84.5" width="15" height="15" rx="3.5" fill="#5C5C5C" stroke="black"/>
<rect x="44.5" y="84.5" width="15" height="15" rx="3.5" fill="#5C5C5C" stroke="black"/>
<rect x="18.5" y="84.5" width="15" height="15" rx="3.5" fill="#5C5C5C" stroke="black"/>
<circle cx="153" cy="92" r="4.5" fill="#B6B941" stroke="black"/>
<circle cx="139" cy="92" r="4.5" fill="#B6B941" stroke="black"/>
<circle cx="167" cy="92" r="4.5" fill="#B6B941" stroke="black"/>
<rect x="0.5" y="109.5" width="190" height="32" rx="14.5" fill="white" fill-opacity="0.63" stroke="black"/>
<rect x="96.5" y="117.5" width="82" height="15" rx="3.5" fill="#5C5C5C" stroke="black"/>
<rect x="70.5" y="117.5" width="15" height="15" rx="3.5" fill="#5C5C5C" stroke="black"/>
<rect x="44.5" y="117.5" width="15" height="15" rx="3.5" fill="#5C5C5C" stroke="black"/>
<rect x="18.5" y="117.5" width="15" height="15" rx="3.5" fill="#5C5C5C" stroke="black"/>
<circle cx="153" cy="125" r="4.5" fill="#B6B941" stroke="black"/>
<circle cx="139" cy="125" r="4.5" fill="#B6B941" stroke="black"/>
<circle cx="167" cy="125" r="4.5" fill="#B6B941" stroke="black"/>
<rect x="0.5" y="142.5" width="190" height="32" rx="14.5" fill="white" fill-opacity="0.63" stroke="black"/>
<rect x="96.5" y="150.5" width="82" height="15" rx="3.5" fill="#5C5C5C" stroke="black"/>
<rect x="70.5" y="150.5" width="15" height="15" rx="3.5" fill="#5C5C5C" stroke="black"/>
<rect x="44.5" y="150.5" width="15" height="15" rx="3.5" fill="#5C5C5C" stroke="black"/>
<rect x="18.5" y="150.5" width="15" height="15" rx="3.5" fill="#5C5C5C" stroke="black"/>
<circle cx="153" cy="158" r="4.5" fill="#B6B941" stroke="black"/>
<circle cx="139" cy="158" r="4.5" fill="#B6B941" stroke="black"/>
<circle cx="167" cy="158" r="4.5" fill="#B6B941" stroke="black"/>
</svg>
