<svg width="196" height="182" viewBox="0 0 196 182" fill="none" xmlns="http://www.w3.org/2000/svg">
<path d="M167.07 34.4641L104.07 8.21406C102.151 7.41796 100.094 7.00818 98.0164 7.00818C95.9388 7.00818 93.8816 7.41796 91.9625 8.21406L28.9625 34.4641C23.0891 36.8922 19.25 42.6344 19.25 49C19.25 114.133 56.8203 159.152 91.9297 173.786C95.8016 175.394 100.166 175.394 104.037 173.786C132.158 162.072 176.75 121.614 176.75 49C176.75 42.6344 172.911 36.8922 167.07 34.4641ZM98.0328 153.442L98 28.4266L155.717 52.4781C154.634 102.156 128.778 138.152 98.0328 153.442V153.442Z" fill="#273A57"/>
</svg>
