<svg width="737" height="176" viewBox="0 0 737 176" fill="none" xmlns="http://www.w3.org/2000/svg">
<g clip-path="url(#clip0)">
<path fill-rule="evenodd" clip-rule="evenodd" d="M22.0698 86.5851C24.3407 90.4332 67.409 132.642 71.6375 134.281C78.8414 137.062 84.6362 132.49 85.6151 127.004C87.1031 118.852 72.8904 108.566 63.8461 99.69C59.8133 95.728 54.0578 91.3093 51.787 86.547C56.5636 79.7664 70.0322 68.0708 76.7666 61.5566C80.0164 58.4328 86.7114 53.6709 86.4765 47.309C86.2416 40.8708 80.0945 36.2994 72.4989 38.3947C67.6439 39.7661 25.8677 81.0236 22.0698 86.5851Z" fill="#F26651"/>
<path fill-rule="evenodd" clip-rule="evenodd" d="M154.37 12.6594C147.441 16.0499 148.302 18.9832 145.209 29.5737L128.177 89.6117C124.38 102.983 120.856 115.517 116.901 129.345C115.57 133.955 111.537 146.183 111.381 150.183C111.107 158.259 118.702 164.393 126.846 160.126C133.62 156.545 148.498 94.183 151.904 82.7929C155.898 69.5359 159.069 56.7737 163.258 43.0976C164.511 38.9833 168.583 25.8785 168.583 22.2976C168.583 14.1451 161.731 9.04041 154.37 12.6594Z" fill="#F26651"/>
<path fill-rule="evenodd" clip-rule="evenodd" d="M228.096 86.5471C224.454 93.443 210.673 104.681 204.173 110.966C200.689 114.319 193.602 118.814 194.111 125.785C194.62 132.528 201.158 137.252 208.519 134.281C211.534 133.062 254.837 90.4332 257.93 86.5089C254.289 80.376 212.708 39.8424 207.54 38.3567C200.023 36.1853 193.876 40.7948 193.484 47.3091C192.897 57.0996 216.389 71.7662 228.096 86.5471Z" fill="#F26651"/>
<path d="M290.8 68.4881H312.496V121H290.8V68.4881ZM301.648 64.2641C297.744 64.2641 294.576 63.2401 292.144 61.1921C289.776 59.0801 288.592 56.4241 288.592 53.2241C288.592 50.0241 289.776 47.4001 292.144 45.3521C294.576 43.2401 297.744 42.1841 301.648 42.1841C305.616 42.1841 308.784 43.1761 311.152 45.1601C313.52 47.1441 314.704 49.7041 314.704 52.8401C314.704 56.1681 313.52 58.9201 311.152 61.0961C308.784 63.2081 305.616 64.2641 301.648 64.2641ZM360.801 119.176C357.537 121.032 353.089 121.96 347.457 121.96C340.097 121.96 334.433 120.2 330.465 116.68C326.497 113.096 324.513 107.752 324.513 100.648V87.2081H317.312V71.3681H324.513V56.6801H346.209V71.3681H356.961V87.2081H346.209V100.456C346.209 102.056 346.625 103.304 347.457 104.2C348.289 105.096 349.377 105.544 350.721 105.544C352.577 105.544 354.209 105.064 355.617 104.104L360.801 119.176ZM399.293 53.8001C405.501 53.8001 410.909 54.8241 415.517 56.8721C420.125 58.9201 423.677 61.8641 426.173 65.7041C428.669 69.5441 429.917 74.0241 429.917 79.1441C429.917 84.2641 428.669 88.7441 426.173 92.5841C423.677 96.4241 420.125 99.3681 415.517 101.416C410.909 103.464 405.501 104.488 399.293 104.488H389.597V121H366.941V53.8001H399.293ZM397.853 87.0161C400.925 87.0161 403.229 86.3441 404.765 85.0001C406.301 83.5921 407.069 81.6401 407.069 79.1441C407.069 76.6481 406.301 74.7281 404.765 73.3841C403.229 71.9761 400.925 71.2721 397.853 71.2721H389.597V87.0161H397.853ZM458.253 74.1521C462.093 69.7361 467.757 67.5281 475.245 67.5281V86.7281C473.517 86.4721 471.917 86.3441 470.445 86.3441C463.021 86.3441 459.309 90.1201 459.309 97.6721V121H437.613V68.4881H458.253V74.1521ZM508.669 121.96C502.845 121.96 497.597 120.808 492.925 118.504C488.317 116.136 484.701 112.904 482.077 108.808C479.453 104.648 478.141 99.9441 478.141 94.6961C478.141 89.4481 479.453 84.7761 482.077 80.6801C484.701 76.5201 488.317 73.2881 492.925 70.9841C497.597 68.6801 502.845 67.5281 508.669 67.5281C514.557 67.5281 519.805 68.6801 524.413 70.9841C529.085 73.2881 532.701 76.5201 535.261 80.6801C537.885 84.7761 539.197 89.4481 539.197 94.6961C539.197 99.9441 537.885 104.648 535.261 108.808C532.701 112.904 529.085 116.136 524.413 118.504C519.805 120.808 514.557 121.96 508.669 121.96ZM508.669 105.064C511.165 105.064 513.213 104.168 514.813 102.376C516.413 100.52 517.213 97.9601 517.213 94.6961C517.213 91.4321 516.413 88.9041 514.813 87.1121C513.213 85.3201 511.165 84.4241 508.669 84.4241C506.173 84.4241 504.125 85.3201 502.525 87.1121C500.925 88.9041 500.125 91.4321 500.125 94.6961C500.125 97.9601 500.925 100.52 502.525 102.376C504.125 104.168 506.173 105.064 508.669 105.064ZM604.644 68.4881V110.536C604.644 120.52 601.86 128.008 596.292 133C590.788 138.056 582.916 140.584 572.676 140.584C567.428 140.584 562.532 140.008 557.988 138.856C553.444 137.768 549.572 136.168 546.372 134.056L553.668 119.272C555.716 120.808 558.308 122.056 561.444 123.016C564.58 123.976 567.588 124.456 570.468 124.456C574.82 124.456 577.988 123.528 579.972 121.672C581.956 119.816 582.948 117.096 582.948 113.512V112.552C579.684 116.264 574.852 118.12 568.452 118.12C563.972 118.12 559.78 117.096 555.876 115.048C552.036 112.936 548.964 109.96 546.66 106.12C544.356 102.216 543.204 97.7681 543.204 92.7761C543.204 87.7841 544.356 83.3681 546.66 79.5281C548.964 75.6881 552.036 72.7441 555.876 70.6961C559.78 68.5841 563.972 67.5281 568.452 67.5281C575.62 67.5281 580.804 69.8321 584.004 74.4401V68.4881H604.644ZM574.212 101.224C576.772 101.224 578.884 100.456 580.548 98.9201C582.276 97.3201 583.14 95.2721 583.14 92.7761C583.14 90.2801 582.276 88.2641 580.548 86.7281C578.884 85.1921 576.772 84.4241 574.212 84.4241C571.588 84.4241 569.412 85.1921 567.684 86.7281C566.02 88.2641 565.188 90.2801 565.188 92.7761C565.188 95.2721 566.052 97.3201 567.78 98.9201C569.508 100.456 571.652 101.224 574.212 101.224ZM670.11 94.6961C670.11 95.0161 670.014 96.7121 669.822 99.7841H633.342C634.11 101.768 635.39 103.304 637.182 104.392C638.974 105.416 641.214 105.928 643.902 105.928C646.206 105.928 648.126 105.64 649.662 105.064C651.262 104.488 652.99 103.496 654.846 102.088L666.174 113.512C661.054 119.144 653.406 121.96 643.23 121.96C636.894 121.96 631.326 120.808 626.526 118.504C621.726 116.136 618.014 112.872 615.39 108.712C612.766 104.552 611.454 99.8801 611.454 94.6961C611.454 89.4481 612.734 84.7761 615.294 80.6801C617.918 76.5201 621.47 73.2881 625.95 70.9841C630.494 68.6801 635.582 67.5281 641.214 67.5281C646.526 67.5281 651.358 68.5841 655.71 70.6961C660.126 72.8081 663.614 75.9121 666.174 80.0081C668.798 84.1041 670.11 89.0001 670.11 94.6961ZM641.406 82.3121C639.166 82.3121 637.31 82.9201 635.838 84.1361C634.366 85.3521 633.406 87.0801 632.958 89.3201H649.854C649.406 87.1441 648.446 85.4481 646.974 84.2321C645.502 82.9521 643.646 82.3121 641.406 82.3121ZM697.596 74.1521C701.436 69.7361 707.1 67.5281 714.588 67.5281V86.7281C712.86 86.4721 711.26 86.3441 709.788 86.3441C702.364 86.3441 698.652 90.1201 698.652 97.6721V121H676.956V68.4881H697.596V74.1521Z" fill="#333333"/>
</g>
<defs>
<clipPath id="clip0">
<rect width="737" height="176" fill="white"/>
</clipPath>
</defs>
</svg>
