<svg width="185" height="248" viewBox="0 0 185 248" fill="none" xmlns="http://www.w3.org/2000/svg">
<g filter="url(#filter0_d)">
<path d="M132.845 146.67C137.44 143.529 143.817 140.811 143.817 140.811C143.817 140.811 125.671 144.092 107.618 145.592C85.5333 147.42 61.8072 147.795 49.8973 146.201C21.7168 142.451 65.3708 132.092 65.3708 132.092C65.3708 132.092 48.4438 130.967 27.578 140.998C2.9611 152.904 88.5342 158.342 132.845 146.67ZM92.8011 131.623C83.8921 111.608 53.8361 94.03 92.8011 63.2804C141.407 24.9372 116.48 0 116.48 0C126.561 39.6089 81.0319 51.6087 64.5737 76.2177C53.3672 93.0456 70.0598 111.092 92.8011 131.623ZM146.536 49.0306C146.583 49.0306 64.3862 69.5616 103.633 114.748C115.214 128.061 100.585 140.061 100.585 140.061C100.585 140.061 129.984 124.873 116.48 105.889C103.867 88.1707 94.2078 79.3583 146.536 49.0306ZM143.676 175.826C143.42 176.272 143.104 176.682 142.738 177.045C202.897 161.248 180.766 121.311 152.022 131.436C150.47 132.006 149.129 133.036 148.177 134.389C149.856 133.782 151.581 133.311 153.335 132.983C167.871 129.936 188.737 152.435 143.676 175.826ZM165.789 205.029C165.789 205.029 172.588 210.607 158.334 214.966C131.185 223.169 45.4241 225.653 21.6043 215.294C13.0236 211.591 29.1066 206.388 34.1707 205.31C39.4223 204.185 42.4701 204.372 42.4701 204.372C32.9515 197.669 -19.0957 217.544 16.0245 223.216C111.791 238.778 190.64 216.232 165.789 205.029ZM60.9632 185.623C24.0613 195.935 83.4232 217.216 130.406 197.107C125.824 195.327 121.401 193.163 117.184 190.638C96.224 194.622 86.5179 194.904 67.4809 192.747C51.7729 190.966 60.9632 185.623 60.9632 185.623ZM145.27 231.184C108.368 238.122 62.8388 237.325 35.8774 232.872C35.8774 232.825 41.4104 237.419 69.8253 239.247C113.057 242.012 179.453 237.7 181 217.263C181 217.263 177.999 224.997 145.27 231.184ZM124.827 165.467C97.068 170.81 80.985 170.67 60.6819 168.56C44.974 166.92 55.2427 159.326 55.2427 159.326C14.5428 172.826 77.8434 188.107 134.72 171.466C131.044 170.169 127.676 168.126 124.827 165.467Z" fill="#39728A"/>
</g>
<defs>
<filter id="filter0_d" x="0" y="0" width="185" height="248" filterUnits="userSpaceOnUse" color-interpolation-filters="sRGB">
<feFlood flood-opacity="0" result="BackgroundImageFix"/>
<feColorMatrix in="SourceAlpha" type="matrix" values="0 0 0 0 0 0 0 0 0 0 0 0 0 0 0 0 0 0 127 0"/>
<feOffset dy="4"/>
<feGaussianBlur stdDeviation="2"/>
<feColorMatrix type="matrix" values="0 0 0 0 0 0 0 0 0 0 0 0 0 0 0 0 0 0 0.25 0"/>
<feBlend mode="normal" in2="BackgroundImageFix" result="effect1_dropShadow"/>
<feBlend mode="normal" in="SourceGraphic" in2="effect1_dropShadow" result="shape"/>
</filter>
</defs>
</svg>
