<svg width="341" height="247" viewBox="0 0 341 247" fill="none" xmlns="http://www.w3.org/2000/svg">
<rect x="0.5" y="0.5" width="340" height="246" rx="34.5" fill="#CDDEA8" stroke="black"/>
<line x1="341" y1="52.5" y2="52.5" stroke="black"/>
<circle cx="45.5" cy="26.5" r="16.5" fill="#EA3A3A"/>
<circle cx="85.5" cy="26.5" r="16.5" fill="#EBB732"/>
<circle cx="125.5" cy="26.5" r="16.5" fill="#67DC3E"/>
<path d="M73.0537 95.9473L81.4033 98.8916V102.993L68.791 97.6465V94.1895L81.4033 88.8428V92.9443L73.0537 95.9473ZM89.0205 90.8789C90.1436 89.5312 91.5547 88.8574 93.2539 88.8574C96.6914 88.8574 98.4346 90.8545 98.4834 94.8486V105H94.25V94.9658C94.25 94.0576 94.0547 93.3887 93.6641 92.959C93.2734 92.5195 92.624 92.2998 91.7158 92.2998C90.4756 92.2998 89.5771 92.7783 89.0205 93.7354V105H84.7871V82.5H89.0205V90.8789ZM106.745 85.2539V89.1504H109.455V92.2559H106.745V100.166C106.745 100.752 106.857 101.172 107.082 101.426C107.307 101.68 107.736 101.807 108.371 101.807C108.84 101.807 109.255 101.772 109.616 101.704V104.912C108.786 105.166 107.932 105.293 107.053 105.293C104.084 105.293 102.57 103.794 102.512 100.796V92.2559H100.197V89.1504H102.512V85.2539H106.745ZM115.783 89.1504L115.915 90.9229C117.038 89.5459 118.557 88.8574 120.471 88.8574C122.512 88.8574 123.913 89.6631 124.675 91.2744C125.788 89.6631 127.375 88.8574 129.436 88.8574C131.154 88.8574 132.434 89.3604 133.273 90.3662C134.113 91.3623 134.533 92.8662 134.533 94.8779V105H130.285V94.8926C130.285 93.9941 130.109 93.3398 129.758 92.9297C129.406 92.5098 128.786 92.2998 127.897 92.2998C126.628 92.2998 125.749 92.9053 125.261 94.1162L125.275 105H121.042V94.9072C121.042 93.9893 120.861 93.3252 120.5 92.915C120.139 92.5049 119.523 92.2998 118.654 92.2998C117.453 92.2998 116.584 92.7979 116.047 93.7939V105H111.813V89.1504H115.783ZM142.268 105H138.02V82.5H142.268V105ZM154.411 95.9033L145.9 92.9297V88.8574L158.659 94.2041V97.6465L145.9 103.008V98.9209L154.411 95.9033ZM162.702 130.947L171.052 133.892V137.993L158.439 132.646V129.189L171.052 123.843V127.944L162.702 130.947ZM188.82 132.222C188.82 134.761 188.278 136.743 187.194 138.169C186.11 139.585 184.597 140.293 182.653 140.293C180.935 140.293 179.562 139.634 178.537 138.315L178.347 140H174.538V117.5H178.771V125.571C179.748 124.429 181.032 123.857 182.624 123.857C184.558 123.857 186.071 124.57 187.165 125.996C188.269 127.412 188.82 129.409 188.82 131.987V132.222ZM184.587 131.914C184.587 130.312 184.333 129.146 183.825 128.413C183.317 127.671 182.561 127.3 181.555 127.3C180.207 127.3 179.279 127.852 178.771 128.955V135.21C179.289 136.323 180.227 136.88 181.584 136.88C182.951 136.88 183.85 136.206 184.279 134.858C184.484 134.214 184.587 133.232 184.587 131.914ZM190.783 131.929C190.783 130.356 191.086 128.955 191.691 127.725C192.297 126.494 193.166 125.542 194.299 124.868C195.441 124.194 196.765 123.857 198.269 123.857C200.407 123.857 202.15 124.512 203.498 125.82C204.855 127.129 205.612 128.906 205.769 131.152L205.798 132.236C205.798 134.668 205.119 136.621 203.762 138.096C202.404 139.561 200.583 140.293 198.298 140.293C196.013 140.293 194.187 139.561 192.819 138.096C191.462 136.631 190.783 134.639 190.783 132.119V131.929ZM195.017 132.236C195.017 133.74 195.3 134.893 195.866 135.693C196.433 136.484 197.243 136.88 198.298 136.88C199.323 136.88 200.124 136.489 200.7 135.708C201.276 134.917 201.564 133.657 201.564 131.929C201.564 130.454 201.276 129.312 200.7 128.501C200.124 127.69 199.313 127.285 198.269 127.285C197.233 127.285 196.433 127.69 195.866 128.501C195.3 129.302 195.017 130.547 195.017 132.236ZM207.746 131.958C207.746 129.487 208.298 127.52 209.401 126.055C210.515 124.59 212.033 123.857 213.957 123.857C215.5 123.857 216.774 124.434 217.78 125.586V117.5H222.028V140H218.205L218 138.315C216.945 139.634 215.588 140.293 213.928 140.293C212.062 140.293 210.563 139.561 209.431 138.096C208.308 136.621 207.746 134.575 207.746 131.958ZM211.979 132.266C211.979 133.75 212.238 134.888 212.756 135.679C213.273 136.47 214.025 136.865 215.012 136.865C216.32 136.865 217.243 136.313 217.78 135.21V128.955C217.253 127.852 216.34 127.3 215.041 127.3C213 127.3 211.979 128.955 211.979 132.266ZM231.228 134.009L234.157 124.15H238.698L232.326 142.461L231.975 143.296C231.027 145.366 229.465 146.401 227.287 146.401C226.672 146.401 226.047 146.309 225.412 146.123V142.915L226.057 142.93C226.857 142.93 227.453 142.808 227.844 142.563C228.244 142.319 228.557 141.914 228.781 141.348L229.279 140.044L223.728 124.15H228.283L231.228 134.009ZM249.011 130.903L240.5 127.93V123.857L253.259 129.204V132.646L240.5 138.008V133.921L249.011 130.903ZM162.702 165.947L171.052 168.892V172.993L158.439 167.646V164.189L171.052 158.843V162.944L162.702 165.947ZM175.871 176.831H172.722L180.573 153.672H183.723L175.871 176.831ZM200.041 167.222C200.041 169.761 199.499 171.743 198.415 173.169C197.331 174.585 195.817 175.293 193.874 175.293C192.155 175.293 190.783 174.634 189.758 173.315L189.567 175H185.759V152.5H189.992V160.571C190.969 159.429 192.253 158.857 193.845 158.857C195.778 158.857 197.292 159.57 198.386 160.996C199.489 162.412 200.041 164.409 200.041 166.987V167.222ZM195.808 166.914C195.808 165.312 195.554 164.146 195.046 163.413C194.538 162.671 193.781 162.3 192.775 162.3C191.428 162.3 190.5 162.852 189.992 163.955V170.21C190.51 171.323 191.447 171.88 192.805 171.88C194.172 171.88 195.07 171.206 195.5 169.858C195.705 169.214 195.808 168.232 195.808 166.914ZM202.004 166.929C202.004 165.356 202.307 163.955 202.912 162.725C203.518 161.494 204.387 160.542 205.52 159.868C206.662 159.194 207.985 158.857 209.489 158.857C211.628 158.857 213.371 159.512 214.719 160.82C216.076 162.129 216.833 163.906 216.989 166.152L217.019 167.236C217.019 169.668 216.34 171.621 214.982 173.096C213.625 174.561 211.804 175.293 209.519 175.293C207.233 175.293 205.407 174.561 204.04 173.096C202.683 171.631 202.004 169.639 202.004 167.119V166.929ZM206.237 167.236C206.237 168.74 206.521 169.893 207.087 170.693C207.653 171.484 208.464 171.88 209.519 171.88C210.544 171.88 211.345 171.489 211.921 170.708C212.497 169.917 212.785 168.657 212.785 166.929C212.785 165.454 212.497 164.312 211.921 163.501C211.345 162.69 210.534 162.285 209.489 162.285C208.454 162.285 207.653 162.69 207.087 163.501C206.521 164.302 206.237 165.547 206.237 167.236ZM218.967 166.958C218.967 164.487 219.519 162.52 220.622 161.055C221.735 159.59 223.254 158.857 225.178 158.857C226.721 158.857 227.995 159.434 229.001 160.586V152.5H233.249V175H229.426L229.221 173.315C228.166 174.634 226.809 175.293 225.148 175.293C223.283 175.293 221.784 174.561 220.651 173.096C219.528 171.621 218.967 169.575 218.967 166.958ZM223.2 167.266C223.2 168.75 223.459 169.888 223.977 170.679C224.494 171.47 225.246 171.865 226.232 171.865C227.541 171.865 228.464 171.313 229.001 170.21V163.955C228.474 162.852 227.561 162.3 226.262 162.3C224.221 162.3 223.2 163.955 223.2 167.266ZM242.448 169.009L245.378 159.15H249.919L243.547 177.461L243.195 178.296C242.248 180.366 240.686 181.401 238.508 181.401C237.893 181.401 237.268 181.309 236.633 181.123V177.915L237.277 177.93C238.078 177.93 238.674 177.808 239.064 177.563C239.465 177.319 239.777 176.914 240.002 176.348L240.5 175.044L234.948 159.15H239.504L242.448 169.009ZM260.231 165.903L251.721 162.93V158.857L264.479 164.204V167.646L251.721 173.008V168.921L260.231 165.903ZM73.0537 200.947L81.4033 203.892V207.993L68.791 202.646V199.189L81.4033 193.843V197.944L73.0537 200.947ZM86.2227 211.831H83.0732L90.9248 188.672H94.0742L86.2227 211.831ZM100.241 195.879C101.364 194.531 102.775 193.857 104.475 193.857C107.912 193.857 109.655 195.854 109.704 199.849V210H105.471V199.966C105.471 199.058 105.275 198.389 104.885 197.959C104.494 197.52 103.845 197.3 102.937 197.3C101.696 197.3 100.798 197.778 100.241 198.735V210H96.0078V187.5H100.241V195.879ZM117.966 190.254V194.15H120.676V197.256H117.966V205.166C117.966 205.752 118.078 206.172 118.303 206.426C118.527 206.68 118.957 206.807 119.592 206.807C120.061 206.807 120.476 206.772 120.837 206.704V209.912C120.007 210.166 119.152 210.293 118.273 210.293C115.305 210.293 113.791 208.794 113.732 205.796V197.256H111.418V194.15H113.732V190.254H117.966ZM127.004 194.15L127.136 195.923C128.259 194.546 129.777 193.857 131.691 193.857C133.732 193.857 135.134 194.663 135.896 196.274C137.009 194.663 138.596 193.857 140.656 193.857C142.375 193.857 143.654 194.36 144.494 195.366C145.334 196.362 145.754 197.866 145.754 199.878V210H141.506V199.893C141.506 198.994 141.33 198.34 140.979 197.93C140.627 197.51 140.007 197.3 139.118 197.3C137.849 197.3 136.97 197.905 136.481 199.116L136.496 210H132.263V199.907C132.263 198.989 132.082 198.325 131.721 197.915C131.359 197.505 130.744 197.3 129.875 197.3C128.674 197.3 127.805 197.798 127.268 198.794V210H123.034V194.15H127.004ZM153.488 210H149.24V187.5H153.488V210ZM165.632 200.903L157.121 197.93V193.857L169.88 199.204V202.646L157.121 208.008V203.921L165.632 200.903Z" fill="black"/>
</svg>
