<svg width="259" height="296" viewBox="0 0 259 296" fill="none" xmlns="http://www.w3.org/2000/svg">
<g clip-path="url(#clip0)">
<path d="M254.259 115.914C249.808 98.05 241.367 84.5797 223.387 84.5797H200.205V111.983C200.205 133.258 182.167 151.18 161.586 151.18H99.8421C82.9609 151.18 68.9703 165.633 68.9703 182.572V241.425C68.9703 258.191 83.539 268.019 99.8421 272.817C119.383 278.541 138.172 279.581 161.586 272.817C177.137 268.308 192.458 259.231 192.458 241.425V217.895H130.772V210.033H223.387C241.367 210.033 248.016 197.488 254.259 178.698C260.734 159.331 260.445 140.716 254.259 115.914ZM165.459 233.563C171.877 233.563 177.08 238.823 177.08 245.298C177.08 251.831 171.877 257.092 165.459 257.092C159.1 257.092 153.839 251.773 153.839 245.298C153.897 238.766 159.1 233.563 165.459 233.563ZM97.0093 143.433H158.753C175.923 143.433 189.625 129.269 189.625 112.041V53.1297C189.625 36.3641 175.519 23.8188 158.753 20.986C138.056 17.575 115.567 17.7485 97.0093 21.0438C70.8781 25.6688 66.1374 35.3235 66.1374 53.1875V76.7172H127.939V84.5797H42.9546C24.9749 84.5797 9.24994 95.3906 4.33588 115.914C-1.32974 139.444 -1.56099 154.128 4.33588 178.698C8.72963 196.967 19.1937 210.033 37.1734 210.033H58.3906V181.82C58.3906 161.413 76.0234 143.433 97.0093 143.433ZM93.1359 60.9922C86.7187 60.9922 81.5156 55.7313 81.5156 49.2563C81.5734 42.7235 86.7187 37.4625 93.1359 37.4625C99.4952 37.4625 104.756 42.7813 104.756 49.2563C104.756 55.7313 99.5531 60.9922 93.1359 60.9922Z" fill="#1F3A6F"/>
</g>
<defs>
<clipPath id="clip0">
<rect width="259" height="296" fill="white"/>
</clipPath>
</defs>
</svg>
