<svg width="49" height="49" viewBox="0 0 49 49" fill="none" xmlns="http://www.w3.org/2000/svg">
<path d="M24.0187 11.7278C17.2045 11.7278 11.708 17.2385 11.708 24.0706C11.708 30.9026 17.2045 36.4133 24.0187 36.4133C30.833 36.4133 36.3295 30.9026 36.3295 24.0706C36.3295 17.2385 30.833 11.7278 24.0187 11.7278ZM24.0187 32.095C19.6152 32.095 16.0152 28.4963 16.0152 24.0706C16.0152 19.6448 19.6045 16.0461 24.0187 16.0461C28.433 16.0461 32.0223 19.6448 32.0223 24.0706C32.0223 28.4963 28.4223 32.095 24.0187 32.095ZM39.7045 11.2229C39.7045 12.8235 38.4187 14.1018 36.833 14.1018C35.2366 14.1018 33.9616 12.8127 33.9616 11.2229C33.9616 9.63306 35.2473 8.34399 36.833 8.34399C38.4187 8.34399 39.7045 9.63306 39.7045 11.2229ZM47.858 14.1448C47.6759 10.2883 46.7973 6.87231 43.9795 4.05786C41.1723 1.24341 37.7652 0.362549 33.9187 0.169189C29.9545 -0.0563965 18.0723 -0.0563965 14.108 0.169189C10.2723 0.351807 6.86518 1.23267 4.04732 4.04712C1.22946 6.86157 0.361607 10.2776 0.16875 14.134C-0.05625 18.1086 -0.05625 30.0217 0.16875 33.9963C0.350893 37.8528 1.22946 41.2688 4.04732 44.0833C6.86518 46.8977 10.2616 47.7786 14.108 47.9719C18.0723 48.1975 29.9545 48.1975 33.9187 47.9719C37.7652 47.7893 41.1723 46.9084 43.9795 44.0833C46.7866 41.2688 47.6652 37.8528 47.858 33.9963C48.083 30.0217 48.083 18.1194 47.858 14.1448ZM42.7366 38.261C41.9009 40.3665 40.283 41.9885 38.1723 42.8372C35.0116 44.094 27.5116 43.804 24.0187 43.804C20.5259 43.804 13.0152 44.0833 9.86518 42.8372C7.76518 41.9993 6.14732 40.3772 5.30089 38.261C4.04732 35.092 4.33661 27.5725 4.33661 24.0706C4.33661 20.5686 4.05803 13.0383 5.30089 9.88013C6.13661 7.77466 7.75446 6.15259 9.86518 5.30395C13.0259 4.04712 20.5259 4.33716 24.0187 4.33716C27.5116 4.33716 35.0223 4.05786 38.1723 5.30395C40.2723 6.14185 41.8902 7.76392 42.7366 9.88013C43.9902 13.0491 43.7009 20.5686 43.7009 24.0706C43.7009 27.5725 43.9902 35.1028 42.7366 38.261Z" fill="black"/>
</svg>
